<svg xmlns="http://www.w3.org/2000/svg" viewBox="444 470 645 592" preserveAspectRatio="xMidYMid meet"><path fill="#232020" d="M 576.292969 494.046875 L 605.449219 494.046875 L 621.28125 496.546875 L 635.441406 500.710938 L 647.105469 505.710938 L 659.605469 513.207031 L 670.433594 521.539062 L 679.597656 530.703125 L 687.097656 541.535156 L 693.761719 553.199219 L 698.761719 565.695312 L 702.925781 585.691406 L 703.761719 594.023438 L 703.761719 609.851562 L 701.261719 625.679688 L 697.09375 641.511719 L 691.261719 657.339844 L 682.097656 675.667969 L 671.269531 693.164062 L 659.605469 708.992188 L 652.9375 718.15625 L 643.773438 729.820312 L 632.945312 743.152344 L 626.277344 751.484375 L 617.113281 762.3125 L 600.453125 783.140625 L 593.785156 792.304688 L 584.621094 804.804688 L 577.125 816.46875 L 570.460938 830.628906 L 567.125 842.292969 L 567.960938 850.625 L 572.957031 857.289062 L 577.125 859.789062 L 580.457031 860.625 L 594.621094 861.457031 L 596.285156 852.292969 L 602.953125 833.128906 L 610.449219 817.300781 L 619.613281 803.136719 L 628.777344 791.472656 L 637.941406 780.644531 L 643.773438 773.976562 L 656.273438 761.480469 L 665.4375 753.984375 L 677.101562 743.152344 L 686.265625 735.652344 L 698.761719 724.824219 L 709.59375 715.660156 L 717.921875 708.160156 L 727.085938 700.664062 L 735.417969 693.164062 L 744.582031 685.664062 L 756.246094 674.835938 L 762.914062 669.003906 L 786.238281 649.007812 L 794.570312 641.511719 L 803.734375 634.011719 L 813.734375 624.847656 L 822.898438 617.347656 L 832.0625 609.019531 L 838.726562 603.1875 L 847.890625 594.855469 L 857.054688 587.355469 L 867.886719 577.359375 L 874.550781 571.527344 L 884.550781 562.363281 L 893.714844 554.863281 L 904.542969 544.867188 L 908.710938 542.367188 L 906.210938 552.363281 L 897.046875 584.855469 L 892.878906 589.023438 L 878.71875 600.6875 L 867.054688 609.851562 L 856.222656 619.015625 L 845.390625 627.347656 L 833.726562 636.511719 L 822.898438 645.675781 L 811.234375 654.839844 L 801.234375 663.171875 L 789.574219 672.335938 L 761.246094 695.664062 L 750.414062 704.828125 L 741.25 712.324219 L 727.921875 723.15625 L 717.089844 732.320312 L 707.925781 739.820312 L 697.09375 748.984375 L 688.761719 756.480469 L 682.097656 762.3125 L 671.269531 772.3125 L 664.601562 778.144531 L 652.105469 790.640625 L 644.609375 799.804688 L 636.277344 809.800781 L 627.113281 824.796875 L 619.613281 838.960938 L 613.78125 854.792969 L 621.28125 852.292969 L 640.441406 843.128906 L 657.9375 836.460938 L 677.101562 831.464844 L 685.429688 824.796875 L 697.09375 815.632812 L 708.757812 805.636719 L 720.421875 796.472656 L 731.253906 787.308594 L 749.582031 772.3125 L 762.914062 761.480469 L 773.742188 752.316406 L 784.574219 743.984375 L 796.238281 733.988281 L 804.570312 727.324219 L 822.898438 712.324219 L 831.230469 705.660156 L 842.058594 696.496094 L 855.390625 685.664062 L 873.71875 670.667969 L 887.882812 659.003906 L 898.710938 649.839844 L 907.042969 643.175781 L 925.371094 628.179688 L 936.203125 619.015625 L 947.867188 609.851562 L 958.699219 600.6875 L 970.363281 591.523438 L 978.691406 584.023438 L 985.359375 579.023438 L 996.1875 569.859375 L 1005.351562 562.363281 L 1018.683594 551.53125 L 1030.347656 542.367188 L 1038.679688 535.703125 L 1039.511719 538.203125 L 1028.679688 573.191406 L 1026.179688 581.523438 L 1017.015625 589.023438 L 1002.855469 599.019531 L 987.855469 610.683594 L 976.195312 619.015625 L 961.195312 630.679688 L 945.367188 642.34375 L 930.371094 653.171875 L 916.207031 664.003906 L 900.378906 675.667969 L 890.382812 683.167969 L 874.550781 694.832031 L 863.722656 703.160156 L 816.234375 738.152344 L 799.570312 750.648438 L 784.574219 761.480469 L 768.742188 773.144531 L 755.414062 783.140625 L 710.425781 815.632812 L 694.59375 827.296875 L 718.757812 824.796875 L 751.25 824.796875 L 772.910156 827.296875 L 777.910156 828.132812 L 784.574219 828.132812 L 795.402344 819.800781 L 802.070312 814.800781 L 812.898438 806.46875 L 827.894531 795.640625 L 849.558594 778.976562 L 862.886719 768.980469 L 878.71875 757.316406 L 892.046875 746.484375 L 905.378906 736.488281 L 921.207031 724.824219 L 932.871094 715.660156 L 947.867188 703.996094 L 957.863281 696.496094 L 975.359375 683.167969 L 983.691406 676.5 L 997.023438 666.503906 L 1008.683594 657.339844 L 1016.183594 651.507812 L 1027.847656 642.34375 L 1034.511719 637.34375 L 1036.179688 638.175781 L 1026.179688 668.171875 L 1022.847656 677.335938 L 1010.351562 686.5 L 993.6875 698.164062 L 975.359375 710.660156 L 962.863281 719.824219 L 950.367188 728.15625 L 932.039062 740.652344 L 917.875 750.648438 L 899.546875 763.148438 L 886.214844 772.3125 L 869.554688 783.976562 L 853.722656 794.804688 L 839.558594 804.804688 L 822.898438 816.46875 L 812.898438 823.132812 L 799.570312 832.296875 L 824.5625 840.628906 L 849.558594 851.457031 L 852.890625 852.292969 L 863.722656 843.960938 L 875.382812 835.628906 L 935.371094 792.304688 L 944.535156 785.640625 L 956.199219 777.308594 L 981.191406 758.980469 L 991.191406 751.484375 L 999.519531 745.652344 L 1000.355469 748.984375 L 988.691406 780.644531 L 976.195312 788.972656 L 957.863281 800.636719 L 942.035156 810.636719 L 925.371094 821.464844 L 909.542969 831.464844 L 888.714844 844.792969 L 870.386719 856.457031 L 866.21875 858.957031 L 865.386719 860.625 L 870.386719 862.289062 L 887.046875 869.789062 L 903.710938 874.785156 L 916.207031 877.285156 L 923.707031 878.117188 L 945.367188 878.117188 L 969.527344 874.785156 L 989.523438 869.789062 L 1027.015625 857.289062 L 1061.171875 844.792969 L 1066.171875 843.960938 L 1064.503906 847.292969 L 1053.675781 862.289062 L 1045.34375 873.121094 L 1035.34375 887.285156 L 1024.515625 902.28125 L 1015.351562 913.945312 L 1007.851562 923.109375 L 1001.1875 931.4375 L 993.6875 939.769531 L 986.191406 947.269531 L 982.023438 952.265625 L 975.359375 958.097656 L 964.53125 968.929688 L 956.199219 975.59375 L 945.367188 983.925781 L 922.875 998.921875 L 911.210938 1005.585938 L 891.214844 1015.585938 L 866.21875 1024.75 L 847.890625 1029.75 L 826.230469 1033.914062 L 807.902344 1036.414062 L 796.238281 1037.246094 L 767.910156 1038.078125 L 661.269531 1038.078125 L 637.109375 1037.246094 L 611.28125 1034.746094 L 587.953125 1030.582031 L 567.960938 1024.75 L 554.628906 1019.75 L 533.800781 1008.921875 L 517.140625 997.257812 L 503.808594 984.757812 L 494.644531 973.929688 L 483.8125 957.265625 L 477.148438 941.4375 L 471.316406 922.273438 L 468.816406 904.777344 L 468.816406 883.949219 L 471.316406 865.621094 L 475.480469 849.792969 L 480.480469 835.628906 L 487.144531 820.632812 L 497.144531 803.96875 L 507.972656 788.140625 L 517.972656 774.8125 L 529.636719 760.648438 L 539.632812 748.984375 L 547.132812 739.820312 L 552.964844 733.988281 L 558.796875 727.324219 L 570.460938 714.824219 L 580.457031 703.996094 L 592.121094 691.496094 L 600.453125 682.332031 L 611.28125 668.171875 L 619.613281 656.507812 L 628.777344 642.34375 L 637.941406 623.179688 L 641.273438 610.683594 L 642.109375 604.851562 L 642.109375 591.523438 L 638.777344 578.191406 L 633.777344 570.695312 L 626.277344 564.027344 L 617.949219 559.863281 L 611.28125 558.195312 L 604.617188 558.195312 L 594.621094 560.695312 L 587.953125 564.863281 L 579.625 572.359375 L 572.957031 580.691406 L 566.292969 586.523438 L 554.628906 593.1875 L 543.800781 596.519531 L 540.464844 594.855469 L 532.96875 586.523438 L 519.636719 573.191406 L 516.304688 569.027344 L 509.640625 563.195312 L 499.644531 552.363281 L 500.476562 545.699219 L 506.308594 534.035156 L 512.140625 526.539062 L 519.636719 518.207031 L 530.46875 509.875 L 542.964844 503.210938 L 560.460938 497.378906 Z M 576.292969 494.046875 "></path><path fill="#232020" d="M 727.921875 841.460938 L 743.75 841.460938 L 761.246094 843.128906 L 765.410156 843.960938 L 761.246094 848.125 L 747.914062 858.957031 L 733.753906 869.789062 L 720.421875 880.617188 L 697.929688 898.113281 L 692.097656 902.28125 L 696.261719 900.613281 L 708.757812 891.449219 L 722.089844 883.117188 L 757.914062 858.957031 L 766.246094 853.125 L 773.742188 848.960938 L 777.074219 846.460938 L 786.238281 847.292969 L 802.070312 851.457031 L 818.730469 857.289062 L 833.726562 863.957031 L 835.394531 864.789062 L 833.726562 868.121094 L 819.566406 878.117188 L 804.570312 888.949219 L 772.910156 912.277344 L 764.578125 918.109375 L 741.25 935.605469 L 728.753906 943.9375 L 732.085938 943.101562 L 748.75 932.273438 L 763.746094 923.109375 L 777.910156 913.945312 L 793.738281 903.945312 L 804.570312 897.28125 L 819.566406 888.117188 L 833.726562 878.953125 L 846.226562 871.453125 L 849.558594 870.621094 L 867.054688 879.785156 L 889.546875 888.949219 L 907.042969 893.113281 L 922.039062 894.78125 L 943.703125 894.78125 L 962.03125 893.113281 L 982.023438 888.949219 L 1006.1875 882.285156 L 1018.683594 878.117188 L 1020.347656 878.117188 L 1018.683594 882.285156 L 1007.019531 898.113281 L 996.1875 911.445312 L 988.691406 920.609375 L 979.527344 930.605469 L 973.695312 937.269531 L 965.363281 945.601562 L 958.699219 951.433594 L 950.367188 958.933594 L 942.867188 964.765625 L 926.207031 977.261719 L 909.542969 987.257812 L 890.382812 997.257812 L 869.554688 1005.585938 L 847.058594 1012.253906 L 827.894531 1016.417969 L 810.402344 1018.917969 L 797.070312 1019.75 L 767.078125 1019.75 L 745.417969 1017.25 L 724.589844 1013.085938 L 707.09375 1008.085938 L 689.597656 1001.421875 L 676.265625 994.757812 L 664.601562 988.09375 L 652.9375 979.761719 L 641.273438 969.761719 L 635.441406 963.929688 L 624.613281 949.769531 L 617.113281 936.4375 L 612.949219 926.441406 L 608.78125 909.777344 L 607.949219 903.113281 L 607.949219 883.117188 L 609.617188 875.621094 L 647.105469 858.957031 L 669.601562 850.625 L 689.597656 845.625 L 712.925781 842.292969 Z M 727.921875 841.460938 "></path><path fill="#232020" d="M 580.457031 510.707031 L 604.617188 510.707031 L 615.449219 512.375 L 628.777344 515.707031 L 640.441406 520.707031 L 653.773438 529.039062 L 663.769531 537.367188 L 672.101562 548.199219 L 678.765625 559.863281 L 683.765625 574.859375 L 686.265625 587.355469 L 687.097656 594.023438 L 687.097656 611.515625 L 684.597656 625.679688 L 680.433594 639.84375 L 672.101562 659.003906 L 661.269531 678.167969 L 655.4375 686.5 L 647.105469 698.164062 L 637.109375 711.492188 L 630.445312 719.824219 L 621.28125 730.65625 L 612.117188 742.320312 L 604.617188 751.484375 L 593.785156 764.8125 L 583.789062 777.308594 L 572.957031 792.304688 L 563.792969 806.46875 L 555.460938 822.300781 L 551.296875 835.628906 L 551.296875 852.292969 L 555.460938 862.289062 L 561.292969 869.789062 L 569.625 874.785156 L 577.125 877.285156 L 591.289062 878.953125 L 591.289062 899.78125 L 593.785156 917.277344 L 601.285156 939.769531 L 610.449219 957.265625 L 617.949219 968.097656 L 627.113281 978.09375 L 637.109375 988.09375 L 651.273438 998.921875 L 662.101562 1005.585938 L 685.429688 1018.085938 L 687.929688 1019.75 L 636.277344 1019.75 L 616.28125 1018.085938 L 592.953125 1013.917969 L 570.460938 1007.253906 L 551.296875 998.921875 L 539.632812 992.257812 L 529.636719 984.757812 L 518.804688 975.59375 L 511.308594 968.097656 L 505.476562 959.765625 L 497.976562 947.269531 L 492.976562 934.773438 L 487.980469 919.773438 L 485.480469 905.613281 L 485.480469 883.949219 L 488.8125 865.621094 L 494.644531 845.625 L 502.140625 828.964844 L 510.472656 813.96875 L 522.136719 797.304688 L 532.136719 783.976562 L 537.96875 776.476562 L 545.464844 767.3125 L 556.296875 754.816406 L 565.460938 744.816406 L 571.292969 738.152344 L 583.789062 724.824219 L 593.785156 713.992188 L 602.117188 704.828125 L 607.949219 698.164062 L 617.949219 686.5 L 627.945312 674.003906 L 638.777344 658.171875 L 646.273438 645.675781 L 652.105469 633.179688 L 657.105469 616.515625 L 658.769531 606.519531 L 658.769531 593.1875 L 656.273438 579.023438 L 652.105469 569.027344 L 647.105469 560.695312 L 638.777344 552.363281 L 627.113281 545.699219 L 615.449219 542.367188 L 597.953125 542.367188 L 587.121094 545.699219 L 578.789062 550.699219 L 569.625 559.03125 L 560.460938 570.695312 L 553.796875 575.691406 L 546.296875 579.023438 L 540.464844 579.023438 L 540.464844 548.199219 L 538.800781 545.699219 L 533.800781 545.699219 L 521.304688 551.53125 L 517.972656 551.53125 L 519.636719 544.035156 L 525.46875 535.703125 L 535.46875 527.371094 L 547.132812 520.707031 L 558.796875 515.707031 L 574.625 511.542969 Z M 580.457031 510.707031 "></path><path fill="#232020" d="M 497.976562 569.859375 L 501.308594 570.695312 L 517.972656 587.355469 L 524.636719 593.1875 L 532.136719 600.6875 L 531.300781 603.1875 L 519.636719 609.851562 L 511.308594 615.683594 L 497.144531 624.015625 L 491.3125 627.347656 L 486.3125 627.347656 L 482.980469 624.015625 L 488.8125 603.1875 Z M 497.976562 569.859375 "></path></svg>